<svg preserveAspectRatio="none" width="100%" height="100%" overflow="visible" style="display: block;" viewBox="0 0 9.91662 9.91662" fill="none" xmlns="http://www.w3.org/2000/svg">
<g id="Container">
<path id="Icon" d="M0.874979 9.04165H1.61087L7.5822 3.07031L6.84631 2.33442L0.874979 8.30575V9.04165V9.04165M0 9.91662V7.9423L7.69439 0.251276C7.7826 0.171159 7.88 0.10925 7.98658 0.0655502C8.09317 0.0218501 8.20494 0 8.32189 0C8.43885 0 8.55215 0.0207526 8.66179 0.0622578C8.77143 0.103763 8.86851 0.16976 8.95302 0.26025L9.66535 0.981557C9.75584 1.06606 9.82034 1.1633 9.85885 1.27327C9.89737 1.38324 9.91662 1.49321 9.91662 1.60318C9.91662 1.72048 9.89659 1.83243 9.85654 1.93901C9.81648 2.0456 9.75275 2.143 9.66535 2.23121L1.97432 9.91662H0V9.91662M9.04725 1.6019V1.6019L8.31473 0.869369V0.869369L9.04725 1.6019V1.6019M7.2078 2.70882L6.84631 2.33442V2.33442L7.5822 3.07031V3.07031L7.2078 2.70882V2.70882" fill="var(--fill-0, #F8F8F8)"/>
</g>
</svg>
