<svg preserveAspectRatio="none" width="100%" height="100%" overflow="visible" style="display: block;" viewBox="0 0 20.3333 20.3333" fill="none" xmlns="http://www.w3.org/2000/svg">
<g id="Background+Border">
<rect x="1" y="1" width="18.3333" height="18.3333" rx="9.16667" fill="var(--fill-0, #FF7B04)"/>
<rect x="1" y="1" width="18.3333" height="18.3333" rx="9.16667" stroke="var(--stroke-0, #F1F1F0)" stroke-width="2"/>
<path id="Icon" d="M8.5 12.6667L10.1667 11.3958L11.8333 12.6667L11.2083 10.6042L12.875 9.41667H10.8333L10.1667 7.25L9.5 9.41667H7.45833L9.125 10.6042L8.5 12.6667V12.6667M10.1667 14.3333C9.59028 14.3333 9.04861 14.224 8.54167 14.0052C8.03472 13.7865 7.59375 13.4896 7.21875 13.1146C6.84375 12.7396 6.54688 12.2986 6.32812 11.7917C6.10938 11.2847 6 10.7431 6 10.1667C6 9.59028 6.10938 9.04861 6.32812 8.54167C6.54688 8.03472 6.84375 7.59375 7.21875 7.21875C7.59375 6.84375 8.03472 6.54688 8.54167 6.32812C9.04861 6.10938 9.59028 6 10.1667 6C10.7431 6 11.2847 6.10938 11.7917 6.32812C12.2986 6.54688 12.7396 6.84375 13.1146 7.21875C13.4896 7.59375 13.7865 8.03472 14.0052 8.54167C14.224 9.04861 14.3333 9.59028 14.3333 10.1667C14.3333 10.7431 14.224 11.2847 14.0052 11.7917C13.7865 12.2986 13.4896 12.7396 13.1146 13.1146C12.7396 13.4896 12.2986 13.7865 11.7917 14.0052C11.2847 14.224 10.7431 14.3333 10.1667 14.3333V14.3333" fill="var(--fill-0, white)"/>
</g>
</svg>
